# File created by Blade
# Date/Time:  Wed Jan 21 15:15:22 2015
# Frame Rate: 120.000 fps
#------------------------------------------------------
:FULLY-SPECIFIED
:DEGREES
223
root 17.773590 35.663844 -23.894567 117.716870 -88.782652 -113.092342
Spine -10.315444 -1.100751 -0.565782
Head 8.683907 -1.426820 2.799486
LeftShoulder -9.217820 -21.357526 -2.631331
LeftArm -20.586073 3.940790 -72.904689
LeftForeArm 1.587820 -0.000000 5.437855
LeftHand -2.444961 0.000000 -2.961379
LeftHandThumb1 -26.253704 0.000000 33.147579
RightShoulder -8.334249 -14.692261 10.110783
RightArm 8.357158 0.345474 69.895090
RightForeArm -25.142186 -0.000000 12.425199
RightHand -1.451108 -0.000000 6.653280
RightHandThumb1 -24.326973 -0.000000 -32.862282
LeftUpLeg -1.904093 2.547929 -5.597454
LeftLeg 0.084317 -0.000000 -0.000000
LeftFoot -20.811562 25.544734 -9.354932
LeftToeBase 24.507738 -0.000000 -0.000000
RightUpLeg -5.756341 -4.127036 2.359099
RightLeg 9.782127 -0.000000 -0.000000
RightFoot -27.566826 -24.510663 18.126072
RightToeBase 15.886762 -0.000000 -0.000000
224
root 17.755336 35.663869 -23.837258 121.222111 -88.639585 -116.497144
Spine -10.436637 -1.032021 -0.481322
Head 8.541374 -1.446831 2.918889
LeftShoulder -9.160939 -21.395547 -2.485942
LeftArm -20.604225 3.974816 -72.973224
LeftForeArm 1.636708 -0.000000 5.485456
LeftHand -2.389423 0.000000 -3.025112
LeftHandThumb1 -26.253704 0.000000 33.147579
RightShoulder -8.400857 -14.661627 10.192933
RightArm 8.147919 0.523615 69.874416
RightForeArm -24.943132 0.000000 12.562735
RightHand -1.568492 -0.000000 6.533934
RightHandThumb1 -24.326973 -0.000000 -32.862282
LeftUpLeg -1.765952 2.385894 -5.602828
LeftLeg -0.309493 -0.000000 0.000000
LeftFoot -20.668525 25.834610 -9.254891
LeftToeBase 24.407770 -0.000000 -0.000000
RightUpLeg -5.873492 -4.083944 2.348140
RightLeg 9.932838 -0.000000 -0.000000
RightFoot -27.762530 -24.260777 18.425407
RightToeBase 15.173511 -0.000000 -0.000000
225
root 17.737321 35.662533 -23.778167 122.585996 -88.518116 -117.806277
Spine -10.476346 -1.024237 -0.396394
Head 8.396939 -1.373506 3.074134
LeftShoulder -9.126959 -21.430868 -2.346426
LeftArm -20.582409 4.019089 -73.040409
LeftForeArm 1.554943 -0.000000 5.565109
LeftHand -2.474059 -0.000000 -3.093174
LeftHandThumb1 -26.253704 0.000000 33.147579
RightShoulder -8.489420 -14.647648 10.295711
RightArm 8.072791 0.786498 69.789005
RightForeArm -24.835919 -0.000000 12.650117
RightHand -1.702000 0.000000 6.799459
RightHandThumb1 -24.326973 -0.000000 -32.862282
LeftUpLeg -1.584828 2.199745 -5.620938
LeftLeg -0.700382 -0.000000 0.000000
LeftFoot -20.529103 26.140485 -9.162865
LeftToeBase 24.251920 -0.000000 -0.000000
RightUpLeg -5.947001 -4.172284 2.323402
RightLeg 10.091714 -0.000000 -0.000000
RightFoot -27.999030 -23.913098 18.768049
RightToeBase 14.560854 -0.000000 -0.000000
226
root 17.721414 35.659562 -23.723230 124.406789 -88.377477 -119.550209
Spine -10.544340 -0.993054 -0.316240
Head 8.232961 -1.361258 3.224264
LeftShoulder -9.074406 -21.399966 -2.204091
LeftArm -20.496380 3.909015 -73.054590
LeftForeArm 1.630684 -0.000000 5.625596
LeftHand -2.486580 -0.000000 -3.114994
LeftHandThumb1 -26.253704 0.000000 33.147579
RightShoulder -8.543710 -14.597473 10.374666
RightArm 7.981092 0.962388 69.736998
RightForeArm -24.645119 -0.000000 12.583173
RightHand -1.631744 -0.000000 6.636707
RightHandThumb1 -24.326973 -0.000000 -32.862282
LeftUpLeg -1.374181 2.035978 -5.630784
LeftLeg -1.211656 -0.000000 0.000000
LeftFoot -20.349159 26.476240 -9.047172
LeftToeBase 24.188444 -0.000000 -0.000000
RightUpLeg -6.051183 -4.204952 2.312443
RightLeg 10.262820 -0.000000 -0.000000
RightFoot -28.267604 -23.690643 19.048790
RightToeBase 14.222436 -0.000000 -0.000000
